<?xml version="1.0" encoding="UTF-8"?>
<!DOCTYPE svg PUBLIC "-//W3C//DTD SVG 1.1//EN" "http://www.w3.org/Graphics/SVG/1.1/DTD/svg11.dtd">
<svg version="1.1" xmlns="http://www.w3.org/2000/svg" xmlns:xlink="http://www.w3.org/1999/xlink" x="0" y="0" width="260" height="260" viewBox="0, 0, 260, 260">
  <g id="Layer_1">
    <path d="M213.148,93.78 L195.506,82.96 L196.374,83.561 L126.674,140.37 C122.336,144.277 116.552,144.578 113.37,140.971 C110.478,137.364 111.346,131.353 115.973,127.445 L179.6,64.624 L171.502,43.584 L207.653,0 L216.618,41.78 L184.805,74.243 L185.095,75.145 L185.962,75.746 L221.246,47.491 L260,62.821 L213.148,93.78 z M213.437,103.699 L204.761,98.289 C209.967,110.613 213.148,124.439 213.148,138.867 C213.148,194.173 170.056,238.96 116.841,238.96 C63.626,238.96 20.245,194.173 20.245,138.867 C20.245,83.561 63.337,38.775 116.552,38.775 C134.772,38.775 152.125,44.185 166.585,53.202 L162.247,42.081 L171.212,31.26 C155.017,22.243 136.507,17.133 116.841,17.133 C52.347,17.133 -0,71.538 -0,138.566 C-0,205.595 52.347,260 116.841,260 C181.335,260 233.682,205.595 233.682,138.566 C233.682,123.237 231.079,108.809 225.873,95.283 L213.437,103.699 z M163.115,121.434 C165.139,126.844 166.007,132.855 166.007,138.867 C166.007,167.422 143.737,190.266 116.552,190.266 C89.077,190.266 67.097,167.121 67.097,138.867 C67.097,110.613 89.366,87.468 116.552,87.468 C124.65,87.468 132.458,89.572 139.11,93.179 L154.727,77.85 C143.737,70.335 130.723,66.127 116.552,66.127 C77.798,66.127 46.563,98.89 46.563,138.867 C46.563,179.145 78.087,211.607 116.552,211.607 C155.017,211.607 186.541,178.844 186.541,138.867 C186.541,127.746 184.227,117.225 179.889,107.908 L163.115,121.434 z M132.169,146.682 C128.409,149.988 124.071,151.792 119.444,151.792 C114.816,151.792 110.478,149.988 107.586,146.382 C101.513,139.168 102.959,128.046 110.768,121.133 L117.419,114.821 C117.13,114.821 117.13,114.821 116.841,114.821 C103.826,114.821 93.415,125.642 93.415,139.168 C93.415,152.694 103.826,163.514 116.841,163.514 C129.277,163.514 139.399,153.595 140.267,140.671 L132.169,146.682 z M219.511,41.179 L222.403,45.988 L246.986,25.549 L219.511,41.179 z" fill="#F04848"/>
  </g>
</svg>
