<?xml version="1.0" encoding="UTF-8"?>
<!DOCTYPE svg PUBLIC "-//W3C//DTD SVG 1.1//EN" "http://www.w3.org/Graphics/SVG/1.1/DTD/svg11.dtd">
<svg version="1.1" xmlns="http://www.w3.org/2000/svg" xmlns:xlink="http://www.w3.org/1999/xlink" x="0" y="0" width="53.02" height="53.02" viewBox="0, 0, 53.02, 53.02">
  <g id="Layer_1">
    <g>
      <path d="M27.194,0.008 C41.666,0.551 52.837,12.038 53.02,26.51 C53.038,32.597 50.986,38.037 47.37,42.872 L41.294,36.795 C43.471,33.786 44.444,30.187 44.537,26.51 C44.537,16.554 36.466,8.483 26.51,8.483 C16.554,8.483 8.483,16.554 8.483,26.51 C8.483,36.466 16.554,44.537 26.51,44.537 C30.26,44.546 33.708,43.38 36.795,41.294 L42.871,47.37 C38.191,51.055 32.441,52.945 26.51,53.02 C11.869,53.02 0,41.151 0,26.51 C0,11.869 11.869,0 26.51,0 L27.194,0.008 z" fill="#F45358"/>
      <path d="M26.51,14.846 C31.851,14.904 36.155,18.279 37.725,23.329 L33.216,23.329 C32.112,20.718 29.264,19.119 26.51,19.087 C22.41,19.087 19.087,22.411 19.087,26.51 C19.087,30.61 22.41,33.933 26.51,33.933 C29.292,33.863 32.074,32.324 33.216,29.691 L37.725,29.691 C36.22,34.807 31.799,38.041 26.51,38.175 C20.068,38.175 14.845,32.952 14.845,26.51 C14.845,20.068 20.068,14.846 26.51,14.846 z" fill="#F45358"/>
    </g>
  </g>
</svg>
