<?xml version="1.0" encoding="UTF-8"?>
<!DOCTYPE svg PUBLIC "-//W3C//DTD SVG 1.1//EN" "http://www.w3.org/Graphics/SVG/1.1/DTD/svg11.dtd">
<svg version="1.1" xmlns="http://www.w3.org/2000/svg" xmlns:xlink="http://www.w3.org/1999/xlink" x="0" y="0" width="360" height="70" viewBox="0, 0, 360, 70">
  <g id="Layer_2" display="none">
    <path d="M-4,-3 L363,-3 L363,73 L-4,73 L-4,-3 z" fill="#3FA8B0"/>
  </g>
  <g id="Layer_1" display="none">
    <path d="M247.694,56.77 Q247.905,56.77 248.115,56.849 Q248.326,56.928 248.519,57.121 L250.871,59.595 Q249.326,61.613 247.001,62.64 Q244.676,63.667 241.499,63.667 Q238.586,63.667 236.279,62.675 Q233.971,61.684 232.365,59.938 Q230.76,58.191 229.9,55.796 Q229.04,53.401 229.04,50.593 Q229.04,47.732 230.022,45.337 Q231.005,42.941 232.769,41.204 Q234.533,39.467 236.989,38.502 Q239.446,37.536 242.412,37.536 Q243.851,37.536 245.123,37.791 Q246.396,38.045 247.501,38.493 Q248.607,38.94 249.537,39.563 Q250.467,40.186 251.186,40.941 L249.186,43.626 Q248.993,43.871 248.73,44.073 Q248.466,44.275 247.993,44.275 Q247.677,44.275 247.396,44.135 Q247.115,43.994 246.799,43.793 Q246.483,43.591 246.106,43.354 Q245.729,43.117 245.211,42.915 Q244.693,42.713 244,42.573 Q243.307,42.432 242.377,42.432 Q240.762,42.432 239.429,43.003 Q238.095,43.573 237.139,44.635 Q236.182,45.697 235.647,47.206 Q235.112,48.715 235.112,50.593 Q235.112,52.558 235.647,54.085 Q236.182,55.612 237.103,56.656 Q238.025,57.7 239.253,58.244 Q240.482,58.788 241.886,58.788 Q242.693,58.788 243.36,58.709 Q244.027,58.63 244.597,58.437 Q245.167,58.244 245.685,57.937 Q246.203,57.63 246.729,57.174 Q246.94,56.998 247.185,56.884 Q247.431,56.77 247.694,56.77 z" fill="#E9F6FF"/>
    <path d="M275.895,63.386 L269.929,63.386 L269.929,52.576 L259.54,52.576 L259.54,63.386 L253.573,63.386 L253.573,37.817 L259.54,37.817 L259.54,48.504 L269.929,48.504 L269.929,37.817 L275.895,37.817 z" fill="#E9F6FF"/>
    <path d="M296.568,37.817 L296.568,42.38 L286.074,42.38 L286.074,48.346 L294.111,48.346 L294.111,52.734 L286.074,52.734 L286.074,58.823 L296.568,58.823 L296.568,63.386 L280.107,63.386 L280.107,37.817 z" fill="#E9F6FF"/>
    <path d="M317.118,56.77 Q317.328,56.77 317.539,56.849 Q317.75,56.928 317.943,57.121 L320.294,59.595 Q318.75,61.613 316.425,62.64 Q314.099,63.667 310.923,63.667 Q308.01,63.667 305.702,62.675 Q303.395,61.684 301.789,59.938 Q300.183,58.191 299.323,55.796 Q298.463,53.401 298.463,50.593 Q298.463,47.732 299.446,45.337 Q300.429,42.941 302.192,41.204 Q303.956,39.467 306.413,38.502 Q308.87,37.536 311.836,37.536 Q313.275,37.536 314.547,37.791 Q315.819,38.045 316.925,38.493 Q318.03,38.94 318.96,39.563 Q319.891,40.186 320.61,40.941 L318.609,43.626 Q318.416,43.871 318.153,44.073 Q317.89,44.275 317.416,44.275 Q317.1,44.275 316.819,44.135 Q316.539,43.994 316.223,43.793 Q315.907,43.591 315.53,43.354 Q315.152,43.117 314.635,42.915 Q314.117,42.713 313.424,42.573 Q312.731,42.432 311.8,42.432 Q310.186,42.432 308.852,43.003 Q307.518,43.573 306.562,44.635 Q305.606,45.697 305.07,47.206 Q304.535,48.715 304.535,50.593 Q304.535,52.558 305.07,54.085 Q305.606,55.612 306.527,56.656 Q307.448,57.7 308.677,58.244 Q309.905,58.788 311.309,58.788 Q312.116,58.788 312.783,58.709 Q313.45,58.63 314.02,58.437 Q314.591,58.244 315.108,57.937 Q315.626,57.63 316.153,57.174 Q316.363,56.998 316.609,56.884 Q316.855,56.77 317.118,56.77 z" fill="#E9F6FF"/>
    <path d="M328.928,48.171 L329.876,48.171 Q331.192,48.171 331.771,47.346 L337.527,38.993 Q338.001,38.308 338.606,38.063 Q339.212,37.817 340.089,37.817 L345.249,37.817 L337.668,48.153 Q337.264,48.715 336.825,49.084 Q336.386,49.452 335.93,49.698 Q336.597,49.943 337.15,50.373 Q337.703,50.803 338.159,51.523 L345.88,63.386 L340.581,63.386 Q340.072,63.386 339.712,63.316 Q339.352,63.245 339.089,63.105 Q338.826,62.965 338.633,62.763 Q338.44,62.561 338.264,62.298 L332.473,53.401 Q332.157,52.909 331.675,52.707 Q331.192,52.506 330.367,52.506 L328.928,52.506 L328.928,63.386 L322.997,63.386 L322.997,37.817 L328.928,37.817 z" fill="#E9F6FF"/>
    <path d="M110.445,20.392 Q110.445,22.269 110.068,23.928 Q109.69,25.586 108.988,26.981 Q108.286,28.376 107.277,29.482 Q106.268,30.587 105.005,31.377 L111.463,38.291 L109.953,38.291 Q109.602,38.291 109.322,38.195 Q109.041,38.098 108.83,37.853 L103.531,32.132 Q102.425,32.588 101.197,32.834 Q99.968,33.079 98.599,33.079 Q95.985,33.079 93.808,32.176 Q91.632,31.272 90.071,29.613 Q88.509,27.955 87.64,25.612 Q86.771,23.27 86.771,20.392 Q86.771,17.531 87.64,15.188 Q88.509,12.845 90.071,11.187 Q91.632,9.529 93.808,8.616 Q95.985,7.704 98.599,7.704 Q101.249,7.704 103.425,8.607 Q105.601,9.511 107.163,11.178 Q108.725,12.845 109.585,15.188 Q110.445,17.531 110.445,20.392 z M108.585,20.392 Q108.585,17.794 107.865,15.724 Q107.146,13.653 105.838,12.214 Q104.531,10.775 102.688,10.011 Q100.846,9.248 98.599,9.248 Q96.388,9.248 94.554,10.011 Q92.72,10.775 91.395,12.214 Q90.071,13.653 89.342,15.724 Q88.614,17.794 88.614,20.392 Q88.614,23.006 89.342,25.068 Q90.071,27.13 91.395,28.569 Q92.72,30.008 94.554,30.763 Q96.388,31.518 98.599,31.518 Q100.846,31.518 102.688,30.763 Q104.531,30.008 105.838,28.569 Q107.146,27.13 107.865,25.068 Q108.585,23.006 108.585,20.392 z" fill="#E9F6FF"/>
    <path d="M125.467,31.535 Q127.257,31.535 128.669,30.912 Q130.082,30.289 131.065,29.184 Q132.048,28.078 132.565,26.578 Q133.083,25.077 133.083,23.34 L133.083,7.984 L134.873,7.984 L134.873,23.34 Q134.873,25.393 134.224,27.174 Q133.574,28.955 132.355,30.28 Q131.135,31.605 129.389,32.36 Q127.643,33.114 125.467,33.114 Q123.291,33.114 121.545,32.36 Q119.798,31.605 118.579,30.28 Q117.359,28.955 116.71,27.174 Q116.06,25.393 116.06,23.34 L116.06,7.984 L117.868,7.984 L117.868,23.322 Q117.868,25.06 118.386,26.56 Q118.903,28.06 119.877,29.166 Q120.851,30.272 122.264,30.903 Q123.677,31.535 125.467,31.535 z" fill="#E9F6FF"/>
    <path d="M159.705,32.816 L158.318,32.816 Q158.073,32.816 157.915,32.685 Q157.757,32.553 157.669,32.342 L154.738,25.13 L142.542,25.13 L139.629,32.342 Q139.558,32.535 139.383,32.676 Q139.207,32.816 138.962,32.816 L137.593,32.816 L147.754,7.984 L149.544,7.984 z M143.086,23.796 L154.212,23.796 L149.14,11.249 Q149.017,10.95 148.894,10.573 Q148.772,10.196 148.649,9.774 Q148.526,10.196 148.403,10.573 Q148.28,10.95 148.157,11.266 z" fill="#E9F6FF"/>
    <path d="M165.426,31.289 L177.201,31.289 L177.201,32.816 L163.636,32.816 L163.636,7.984 L165.426,7.984 z" fill="#E9F6FF"/>
    <path d="M184.045,32.816 L182.237,32.816 L182.237,7.984 L184.045,7.984 z" fill="#E9F6FF"/>
    <path d="M206.964,7.984 L206.964,9.476 L193.89,9.476 L193.89,19.918 L205.209,19.918 L205.209,21.409 L193.89,21.409 L193.89,32.816 L192.082,32.816 L192.082,7.984 z" fill="#E9F6FF"/>
    <path d="M214.615,32.816 L212.808,32.816 L212.808,7.984 L214.615,7.984 z" fill="#E9F6FF"/>
    <path d="M240.693,28.64 Q240.868,28.64 240.991,28.762 L241.693,29.517 Q240.921,30.342 240.008,31 Q239.096,31.658 238.017,32.123 Q236.937,32.588 235.648,32.842 Q234.358,33.097 232.813,33.097 Q230.234,33.097 228.084,32.193 Q225.934,31.289 224.399,29.631 Q222.863,27.973 222.003,25.621 Q221.143,23.27 221.143,20.392 Q221.143,17.566 222.03,15.232 Q222.916,12.898 224.522,11.222 Q226.127,9.546 228.365,8.625 Q230.602,7.704 233.305,7.704 Q234.656,7.704 235.779,7.905 Q236.902,8.107 237.876,8.485 Q238.85,8.862 239.71,9.423 Q240.57,9.985 241.395,10.722 L240.851,11.512 Q240.71,11.722 240.412,11.722 Q240.254,11.722 240.008,11.538 Q239.763,11.354 239.385,11.082 Q239.008,10.81 238.473,10.485 Q237.938,10.161 237.201,9.889 Q236.464,9.616 235.498,9.432 Q234.533,9.248 233.305,9.248 Q231.041,9.248 229.146,10.029 Q227.25,10.81 225.882,12.258 Q224.513,13.705 223.749,15.767 Q222.986,17.829 222.986,20.392 Q222.986,23.024 223.741,25.095 Q224.495,27.165 225.829,28.596 Q227.163,30.026 228.979,30.789 Q230.795,31.553 232.919,31.553 Q234.252,31.553 235.297,31.377 Q236.341,31.202 237.218,30.851 Q238.096,30.5 238.85,29.991 Q239.605,29.482 240.342,28.797 Q240.43,28.727 240.509,28.683 Q240.588,28.64 240.693,28.64 z" fill="#E9F6FF"/>
    <path d="M266.033,32.816 L264.647,32.816 Q264.401,32.816 264.243,32.685 Q264.086,32.553 263.998,32.342 L261.067,25.13 L248.871,25.13 L245.958,32.342 Q245.887,32.535 245.712,32.676 Q245.536,32.816 245.291,32.816 L243.922,32.816 L254.083,7.984 L255.873,7.984 z M249.415,23.796 L260.541,23.796 L255.469,11.249 Q255.346,10.95 255.223,10.573 Q255.101,10.196 254.978,9.774 Q254.855,10.196 254.732,10.573 Q254.609,10.95 254.486,11.266 z" fill="#E9F6FF"/>
    <path d="M284.161,7.984 L284.161,9.511 L275.44,9.511 L275.44,32.816 L273.65,32.816 L273.65,9.511 L264.875,9.511 L264.875,7.984 z" fill="#E9F6FF"/>
    <path d="M290.918,32.816 L289.11,32.816 L289.11,7.984 L290.918,7.984 z" fill="#E9F6FF"/>
    <path d="M321.102,20.392 Q321.102,23.27 320.242,25.612 Q319.382,27.955 317.82,29.613 Q316.258,31.272 314.082,32.176 Q311.906,33.079 309.256,33.079 Q306.642,33.079 304.466,32.176 Q302.29,31.272 300.728,29.613 Q299.166,27.955 298.297,25.612 Q297.428,23.27 297.428,20.392 Q297.428,17.531 298.297,15.188 Q299.166,12.845 300.728,11.187 Q302.29,9.529 304.466,8.616 Q306.642,7.704 309.256,7.704 Q311.906,7.704 314.082,8.607 Q316.258,9.511 317.82,11.178 Q319.382,12.845 320.242,15.188 Q321.102,17.531 321.102,20.392 z M319.242,20.392 Q319.242,17.794 318.522,15.724 Q317.803,13.653 316.495,12.214 Q315.188,10.775 313.345,10.011 Q311.503,9.248 309.256,9.248 Q307.045,9.248 305.211,10.011 Q303.378,10.775 302.053,12.214 Q300.728,13.653 299.999,15.724 Q299.271,17.794 299.271,20.392 Q299.271,23.006 299.999,25.068 Q300.728,27.13 302.053,28.569 Q303.378,30.008 305.211,30.763 Q307.045,31.518 309.256,31.518 Q311.503,31.518 313.345,30.763 Q315.188,30.008 316.495,28.569 Q317.803,27.13 318.522,25.068 Q319.242,23.006 319.242,20.392 z" fill="#E9F6FF"/>
    <path d="M327.823,7.984 Q328.069,7.984 328.209,8.046 Q328.35,8.107 328.508,8.318 L344.582,29.833 Q344.53,29.306 344.53,28.815 L344.53,7.984 L346.109,7.984 L346.109,32.816 L345.249,32.816 Q344.846,32.816 344.6,32.465 L328.455,10.915 Q328.508,11.442 328.508,11.915 L328.508,32.816 L326.946,32.816 L326.946,7.984 z" fill="#E9F6FF"/>
    <g>
      <path d="M37.261,6.51 C53.364,7.114 65.795,19.896 65.999,36 C66.019,42.773 63.735,48.827 59.712,54.207 L52.951,47.445 C55.373,44.096 56.456,40.091 56.559,36 C56.559,24.921 47.578,15.94 36.499,15.94 C25.42,15.94 16.439,24.921 16.439,36 C16.439,47.079 25.42,56.06 36.499,56.06 C40.672,56.07 44.509,54.772 47.944,52.451 L54.706,59.213 C49.498,63.313 43.1,65.416 36.499,65.5 C20.207,65.5 6.999,52.292 6.999,36 C6.999,19.708 20.207,6.5 36.499,6.5 L37.261,6.51 z" fill="#E9F6FF"/>
      <path d="M36.499,23.02 C42.443,23.086 47.232,26.84 48.979,32.46 L43.962,32.46 C42.733,29.554 39.564,27.776 36.499,27.74 C31.937,27.74 28.239,31.438 28.239,36 C28.239,40.562 31.937,44.26 36.499,44.26 C39.596,44.182 42.691,42.47 43.962,39.54 L48.979,39.54 C47.304,45.232 42.385,48.831 36.499,48.98 C29.331,48.98 23.519,43.169 23.519,36 C23.519,28.831 29.331,23.02 36.499,23.02 z" fill="#E9F6FF"/>
    </g>
  </g>
  <g id="Layer_1_Copy">
    <path d="M105.243,54.578 Q105.445,54.578 105.646,54.653 Q105.847,54.729 106.031,54.913 L108.278,57.277 Q106.803,59.205 104.581,60.186 Q102.36,61.167 99.325,61.167 Q96.542,61.167 94.338,60.219 Q92.133,59.272 90.599,57.604 Q89.065,55.936 88.244,53.648 Q87.422,51.359 87.422,48.677 Q87.422,45.944 88.361,43.656 Q89.3,41.367 90.985,39.708 Q92.67,38.048 95.017,37.126 Q97.364,36.204 100.197,36.204 Q101.572,36.204 102.787,36.447 Q104.003,36.69 105.059,37.117 Q106.115,37.545 107.004,38.14 Q107.892,38.735 108.58,39.456 L106.668,42.021 Q106.484,42.256 106.233,42.449 Q105.981,42.641 105.528,42.641 Q105.227,42.641 104.958,42.507 Q104.69,42.373 104.388,42.18 Q104.087,41.988 103.726,41.761 Q103.366,41.535 102.871,41.342 Q102.377,41.149 101.714,41.015 Q101.052,40.881 100.164,40.881 Q98.621,40.881 97.347,41.426 Q96.073,41.971 95.159,42.985 Q94.246,43.999 93.734,45.441 Q93.223,46.883 93.223,48.677 Q93.223,50.554 93.734,52.013 Q94.246,53.472 95.126,54.469 Q96.006,55.467 97.179,55.986 Q98.353,56.506 99.694,56.506 Q100.465,56.506 101.102,56.431 Q101.739,56.355 102.284,56.171 Q102.829,55.986 103.324,55.693 Q103.818,55.4 104.321,54.964 Q104.522,54.796 104.757,54.687 Q104.992,54.578 105.243,54.578 z" fill="#E9F6FF"/>
    <path d="M132.947,60.898 L127.247,60.898 L127.247,50.571 L117.322,50.571 L117.322,60.898 L111.622,60.898 L111.622,36.472 L117.322,36.472 L117.322,46.682 L127.247,46.682 L127.247,36.472 L132.947,36.472 z" fill="#E9F6FF"/>
    <path d="M152.696,36.472 L152.696,40.831 L142.67,40.831 L142.67,46.531 L150.349,46.531 L150.349,50.722 L142.67,50.722 L142.67,56.54 L152.696,56.54 L152.696,60.898 L136.97,60.898 L136.97,36.472 z" fill="#E9F6FF"/>
    <path d="M172.328,54.578 Q172.529,54.578 172.73,54.653 Q172.931,54.729 173.116,54.913 L175.362,57.277 Q173.887,59.205 171.665,60.186 Q169.444,61.167 166.41,61.167 Q163.627,61.167 161.422,60.219 Q159.217,59.272 157.683,57.604 Q156.149,55.936 155.328,53.648 Q154.506,51.359 154.506,48.677 Q154.506,45.944 155.445,43.656 Q156.384,41.367 158.069,39.708 Q159.754,38.048 162.101,37.126 Q164.448,36.204 167.281,36.204 Q168.656,36.204 169.872,36.447 Q171.087,36.69 172.143,37.117 Q173.199,37.545 174.088,38.14 Q174.977,38.735 175.664,39.456 L173.753,42.021 Q173.568,42.256 173.317,42.449 Q173.065,42.641 172.613,42.641 Q172.311,42.641 172.043,42.507 Q171.774,42.373 171.473,42.18 Q171.171,41.988 170.81,41.761 Q170.45,41.535 169.955,41.342 Q169.461,41.149 168.799,41.015 Q168.136,40.881 167.248,40.881 Q165.705,40.881 164.431,41.426 Q163.157,41.971 162.244,42.985 Q161.33,43.999 160.818,45.441 Q160.307,46.883 160.307,48.677 Q160.307,50.554 160.818,52.013 Q161.33,53.472 162.21,54.469 Q163.09,55.467 164.264,55.986 Q165.437,56.506 166.778,56.506 Q167.55,56.506 168.187,56.431 Q168.824,56.355 169.369,56.171 Q169.913,55.986 170.408,55.693 Q170.903,55.4 171.406,54.964 Q171.607,54.796 171.841,54.687 Q172.076,54.578 172.328,54.578 z" fill="#E9F6FF"/>
    <path d="M183.61,46.363 L184.516,46.363 Q185.773,46.363 186.326,45.575 L191.825,37.595 Q192.278,36.941 192.856,36.707 Q193.435,36.472 194.273,36.472 L199.202,36.472 L191.959,46.346 Q191.574,46.883 191.155,47.235 Q190.736,47.587 190.3,47.822 Q190.937,48.056 191.465,48.467 Q191.993,48.878 192.429,49.565 L199.805,60.898 L194.742,60.898 Q194.256,60.898 193.913,60.831 Q193.569,60.764 193.317,60.63 Q193.066,60.496 192.882,60.303 Q192.697,60.11 192.529,59.859 L186.997,51.359 Q186.695,50.89 186.234,50.697 Q185.773,50.504 184.985,50.504 L183.61,50.504 L183.61,60.898 L177.944,60.898 L177.944,36.472 L183.61,36.472 z" fill="#E9F6FF"/>
    <g>
      <path d="M109.887,19.825 Q109.887,21.619 109.527,23.203 Q109.166,24.787 108.496,26.12 Q107.825,27.453 106.861,28.509 Q105.897,29.565 104.69,30.32 L110.86,36.925 L109.418,36.925 Q109.083,36.925 108.814,36.833 Q108.546,36.741 108.345,36.506 L103.282,31.04 Q102.226,31.476 101.052,31.711 Q99.879,31.946 98.571,31.946 Q96.073,31.946 93.994,31.082 Q91.915,30.219 90.423,28.635 Q88.931,27.05 88.101,24.812 Q87.271,22.574 87.271,19.825 Q87.271,17.092 88.101,14.854 Q88.931,12.616 90.423,11.032 Q91.915,9.447 93.994,8.575 Q96.073,7.704 98.571,7.704 Q101.102,7.704 103.181,8.567 Q105.26,9.43 106.752,11.023 Q108.244,12.616 109.066,14.854 Q109.887,17.092 109.887,19.825 z M108.11,19.825 Q108.11,17.344 107.423,15.365 Q106.735,13.387 105.486,12.012 Q104.237,10.638 102.477,9.908 Q100.717,9.179 98.571,9.179 Q96.459,9.179 94.707,9.908 Q92.955,10.638 91.689,12.012 Q90.423,13.387 89.727,15.365 Q89.032,17.344 89.032,19.825 Q89.032,22.323 89.727,24.293 Q90.423,26.262 91.689,27.637 Q92.955,29.012 94.707,29.733 Q96.459,30.454 98.571,30.454 Q100.717,30.454 102.477,29.733 Q104.237,29.012 105.486,27.637 Q106.735,26.262 107.423,24.293 Q108.11,22.323 108.11,19.825 z" fill="#E9F6FF"/>
      <path d="M124.238,30.47 Q125.948,30.47 127.298,29.875 Q128.647,29.28 129.586,28.224 Q130.525,27.168 131.02,25.734 Q131.514,24.301 131.514,22.641 L131.514,7.972 L133.224,7.972 L133.224,22.641 Q133.224,24.603 132.604,26.304 Q131.983,28.006 130.818,29.272 Q129.653,30.538 127.985,31.258 Q126.317,31.979 124.238,31.979 Q122.159,31.979 120.491,31.258 Q118.823,30.538 117.658,29.272 Q116.493,28.006 115.872,26.304 Q115.252,24.603 115.252,22.641 L115.252,7.972 L116.979,7.972 L116.979,22.624 Q116.979,24.284 117.473,25.718 Q117.968,27.151 118.898,28.207 Q119.829,29.263 121.178,29.867 Q122.528,30.47 124.238,30.47 z" fill="#E9F6FF"/>
      <path d="M156.947,31.694 L155.622,31.694 Q155.387,31.694 155.236,31.569 Q155.086,31.443 155.002,31.242 L152.202,24.351 L140.55,24.351 L137.767,31.242 Q137.7,31.426 137.533,31.56 Q137.365,31.694 137.13,31.694 L135.823,31.694 L145.53,7.972 L147.24,7.972 z M141.07,23.077 L151.699,23.077 L146.854,11.09 Q146.737,10.805 146.619,10.445 Q146.502,10.084 146.385,9.682 Q146.267,10.084 146.15,10.445 Q146.033,10.805 145.915,11.107 z" fill="#E9F6FF"/>
      <path d="M162.412,30.236 L173.661,30.236 L173.661,31.694 L160.702,31.694 L160.702,7.972 L162.412,7.972 z" fill="#E9F6FF"/>
      <path d="M180.199,31.694 L178.473,31.694 L178.473,7.972 L180.199,7.972 z" fill="#E9F6FF"/>
      <path d="M202.095,7.972 L202.095,9.397 L189.605,9.397 L189.605,19.372 L200.418,19.372 L200.418,20.797 L189.605,20.797 L189.605,31.694 L187.878,31.694 L187.878,7.972 z" fill="#E9F6FF"/>
      <path d="M209.404,31.694 L207.677,31.694 L207.677,7.972 L209.404,7.972 z" fill="#E9F6FF"/>
      <path d="M234.317,27.704 Q234.484,27.704 234.602,27.822 L235.272,28.543 Q234.535,29.33 233.663,29.959 Q232.791,30.588 231.76,31.032 Q230.729,31.476 229.497,31.719 Q228.265,31.963 226.789,31.963 Q224.325,31.963 222.271,31.099 Q220.217,30.236 218.751,28.651 Q217.284,27.067 216.462,24.821 Q215.641,22.574 215.641,19.825 Q215.641,17.126 216.487,14.896 Q217.334,12.666 218.868,11.065 Q220.402,9.464 222.539,8.584 Q224.677,7.704 227.259,7.704 Q228.55,7.704 229.623,7.896 Q230.696,8.089 231.626,8.45 Q232.557,8.81 233.378,9.347 Q234.199,9.883 234.987,10.587 L234.468,11.342 Q234.334,11.543 234.049,11.543 Q233.898,11.543 233.663,11.367 Q233.428,11.191 233.068,10.931 Q232.707,10.671 232.196,10.361 Q231.685,10.051 230.981,9.791 Q230.276,9.531 229.354,9.355 Q228.432,9.179 227.259,9.179 Q225.096,9.179 223.285,9.925 Q221.475,10.671 220.167,12.054 Q218.86,13.437 218.13,15.407 Q217.401,17.377 217.401,19.825 Q217.401,22.339 218.122,24.318 Q218.843,26.296 220.117,27.662 Q221.391,29.029 223.126,29.758 Q224.861,30.487 226.89,30.487 Q228.164,30.487 229.162,30.32 Q230.159,30.152 230.997,29.817 Q231.836,29.481 232.557,28.995 Q233.277,28.509 233.982,27.855 Q234.065,27.788 234.141,27.746 Q234.216,27.704 234.317,27.704 z" fill="#E9F6FF"/>
      <path d="M258.525,31.694 L257.201,31.694 Q256.966,31.694 256.815,31.569 Q256.665,31.443 256.581,31.242 L253.781,24.351 L242.129,24.351 L239.346,31.242 Q239.279,31.426 239.112,31.56 Q238.944,31.694 238.709,31.694 L237.402,31.694 L247.108,7.972 L248.819,7.972 z M242.649,23.077 L253.278,23.077 L248.433,11.09 Q248.316,10.805 248.198,10.445 Q248.081,10.084 247.964,9.682 Q247.846,10.084 247.729,10.445 Q247.611,10.805 247.494,11.107 z" fill="#E9F6FF"/>
      <path d="M275.844,7.972 L275.844,9.43 L267.511,9.43 L267.511,31.694 L265.801,31.694 L265.801,9.43 L257.419,9.43 L257.419,7.972 z" fill="#E9F6FF"/>
      <path d="M282.298,31.694 L280.571,31.694 L280.571,7.972 L282.298,7.972 z" fill="#E9F6FF"/>
      <path d="M311.134,19.825 Q311.134,22.574 310.312,24.812 Q309.491,27.05 307.999,28.635 Q306.507,30.219 304.428,31.082 Q302.349,31.946 299.818,31.946 Q297.32,31.946 295.241,31.082 Q293.162,30.219 291.67,28.635 Q290.178,27.05 289.348,24.812 Q288.518,22.574 288.518,19.825 Q288.518,17.092 289.348,14.854 Q290.178,12.616 291.67,11.032 Q293.162,9.447 295.241,8.575 Q297.32,7.704 299.818,7.704 Q302.349,7.704 304.428,8.567 Q306.507,9.43 307.999,11.023 Q309.491,12.616 310.312,14.854 Q311.134,17.092 311.134,19.825 z M309.357,19.825 Q309.357,17.344 308.669,15.365 Q307.982,13.387 306.733,12.012 Q305.484,10.638 303.724,9.908 Q301.963,9.179 299.818,9.179 Q297.705,9.179 295.953,9.908 Q294.201,10.638 292.936,12.012 Q291.67,13.387 290.974,15.365 Q290.278,17.344 290.278,19.825 Q290.278,22.323 290.974,24.293 Q291.67,26.262 292.936,27.637 Q294.201,29.012 295.953,29.733 Q297.705,30.454 299.818,30.454 Q301.963,30.454 303.724,29.733 Q305.484,29.012 306.733,27.637 Q307.982,26.262 308.669,24.293 Q309.357,22.323 309.357,19.825 z" fill="#E9F6FF"/>
      <path d="M317.555,7.972 Q317.79,7.972 317.924,8.031 Q318.058,8.089 318.209,8.29 L333.565,28.844 Q333.515,28.341 333.515,27.872 L333.515,7.972 L335.024,7.972 L335.024,31.694 L334.202,31.694 Q333.817,31.694 333.582,31.359 L318.158,10.772 Q318.209,11.275 318.209,11.727 L318.209,31.694 L316.717,31.694 L316.717,7.972 z" fill="#E9F6FF"/>
    </g>
    <g>
      <path d="M50.988,7.995 C65.46,8.538 76.631,20.025 76.814,34.497 C76.832,40.584 74.78,46.024 71.164,50.859 L65.088,44.782 C67.265,41.773 68.238,38.174 68.331,34.497 C68.331,24.541 60.26,16.47 50.304,16.47 C40.348,16.47 32.277,24.541 32.277,34.497 C32.277,44.453 40.348,52.524 50.304,52.524 C54.054,52.533 57.502,51.367 60.589,49.281 L66.665,55.357 C61.985,59.042 56.235,60.932 50.304,61.007 C35.663,61.007 23.794,49.138 23.794,34.497 C23.794,19.856 35.663,7.987 50.304,7.987 L50.988,7.995 z" fill="#E9F6FF"/>
      <path d="M50.304,22.833 C55.645,22.891 59.949,26.266 61.519,31.316 L57.01,31.316 C55.906,28.705 53.058,27.106 50.304,27.074 C46.204,27.074 42.881,30.398 42.881,34.497 C42.881,38.597 46.204,41.92 50.304,41.92 C53.086,41.85 55.868,40.311 57.01,37.678 L61.519,37.678 C60.014,42.794 55.593,46.028 50.304,46.162 C43.862,46.162 38.639,40.939 38.639,34.497 C38.639,28.055 43.862,22.833 50.304,22.833 z" fill="#E9F6FF"/>
    </g>
  </g>
  <g id="Layer_1_Copy_Copy" display="none">
    <path d="M105.243,54.578 Q105.445,54.578 105.646,54.653 Q105.847,54.729 106.031,54.913 L108.278,57.277 Q106.803,59.205 104.581,60.186 Q102.36,61.167 99.325,61.167 Q96.542,61.167 94.338,60.219 Q92.133,59.272 90.599,57.604 Q89.065,55.936 88.244,53.648 Q87.422,51.359 87.422,48.677 Q87.422,45.944 88.361,43.656 Q89.3,41.367 90.985,39.708 Q92.67,38.048 95.017,37.126 Q97.364,36.204 100.197,36.204 Q101.572,36.204 102.787,36.447 Q104.003,36.69 105.059,37.117 Q106.115,37.545 107.004,38.14 Q107.892,38.735 108.58,39.456 L106.668,42.021 Q106.484,42.256 106.233,42.449 Q105.981,42.641 105.528,42.641 Q105.227,42.641 104.958,42.507 Q104.69,42.373 104.388,42.18 Q104.087,41.988 103.726,41.761 Q103.366,41.535 102.871,41.342 Q102.377,41.149 101.714,41.015 Q101.052,40.881 100.164,40.881 Q98.621,40.881 97.347,41.426 Q96.073,41.971 95.159,42.985 Q94.246,43.999 93.734,45.441 Q93.223,46.883 93.223,48.677 Q93.223,50.554 93.734,52.013 Q94.246,53.472 95.126,54.469 Q96.006,55.467 97.179,55.986 Q98.353,56.506 99.694,56.506 Q100.465,56.506 101.102,56.431 Q101.739,56.355 102.284,56.171 Q102.829,55.986 103.324,55.693 Q103.818,55.4 104.321,54.964 Q104.522,54.796 104.757,54.687 Q104.992,54.578 105.243,54.578 z" fill="#3FA8B0"/>
    <path d="M132.947,60.898 L127.247,60.898 L127.247,50.571 L117.322,50.571 L117.322,60.898 L111.622,60.898 L111.622,36.472 L117.322,36.472 L117.322,46.682 L127.247,46.682 L127.247,36.472 L132.947,36.472 z" fill="#3FA8B0"/>
    <path d="M152.696,36.472 L152.696,40.831 L142.67,40.831 L142.67,46.531 L150.349,46.531 L150.349,50.722 L142.67,50.722 L142.67,56.54 L152.696,56.54 L152.696,60.898 L136.97,60.898 L136.97,36.472 z" fill="#3FA8B0"/>
    <path d="M172.328,54.578 Q172.529,54.578 172.73,54.653 Q172.931,54.729 173.116,54.913 L175.362,57.277 Q173.887,59.205 171.665,60.186 Q169.444,61.167 166.41,61.167 Q163.627,61.167 161.422,60.219 Q159.217,59.272 157.683,57.604 Q156.149,55.936 155.328,53.648 Q154.506,51.359 154.506,48.677 Q154.506,45.944 155.445,43.656 Q156.384,41.367 158.069,39.708 Q159.754,38.048 162.101,37.126 Q164.448,36.204 167.281,36.204 Q168.656,36.204 169.872,36.447 Q171.087,36.69 172.143,37.117 Q173.199,37.545 174.088,38.14 Q174.977,38.735 175.664,39.456 L173.753,42.021 Q173.568,42.256 173.317,42.449 Q173.065,42.641 172.613,42.641 Q172.311,42.641 172.043,42.507 Q171.774,42.373 171.473,42.18 Q171.171,41.988 170.81,41.761 Q170.45,41.535 169.955,41.342 Q169.461,41.149 168.799,41.015 Q168.136,40.881 167.248,40.881 Q165.705,40.881 164.431,41.426 Q163.157,41.971 162.244,42.985 Q161.33,43.999 160.818,45.441 Q160.307,46.883 160.307,48.677 Q160.307,50.554 160.818,52.013 Q161.33,53.472 162.21,54.469 Q163.09,55.467 164.264,55.986 Q165.437,56.506 166.778,56.506 Q167.55,56.506 168.187,56.431 Q168.824,56.355 169.369,56.171 Q169.913,55.986 170.408,55.693 Q170.903,55.4 171.406,54.964 Q171.607,54.796 171.841,54.687 Q172.076,54.578 172.328,54.578 z" fill="#3FA8B0"/>
    <path d="M183.61,46.363 L184.516,46.363 Q185.773,46.363 186.326,45.575 L191.825,37.595 Q192.278,36.941 192.856,36.707 Q193.435,36.472 194.273,36.472 L199.202,36.472 L191.959,46.346 Q191.574,46.883 191.155,47.235 Q190.736,47.587 190.3,47.822 Q190.937,48.056 191.465,48.467 Q191.993,48.878 192.429,49.565 L199.805,60.898 L194.742,60.898 Q194.256,60.898 193.913,60.831 Q193.569,60.764 193.317,60.63 Q193.066,60.496 192.882,60.303 Q192.697,60.11 192.529,59.859 L186.997,51.359 Q186.695,50.89 186.234,50.697 Q185.773,50.504 184.985,50.504 L183.61,50.504 L183.61,60.898 L177.944,60.898 L177.944,36.472 L183.61,36.472 z" fill="#3FA8B0"/>
    <g>
      <path d="M109.887,19.825 Q109.887,21.619 109.527,23.203 Q109.166,24.787 108.496,26.12 Q107.825,27.453 106.861,28.509 Q105.897,29.565 104.69,30.32 L110.86,36.925 L109.418,36.925 Q109.083,36.925 108.814,36.833 Q108.546,36.741 108.345,36.506 L103.282,31.04 Q102.226,31.476 101.052,31.711 Q99.879,31.946 98.571,31.946 Q96.073,31.946 93.994,31.082 Q91.915,30.219 90.423,28.635 Q88.931,27.05 88.101,24.812 Q87.271,22.574 87.271,19.825 Q87.271,17.092 88.101,14.854 Q88.931,12.616 90.423,11.032 Q91.915,9.447 93.994,8.575 Q96.073,7.704 98.571,7.704 Q101.102,7.704 103.181,8.567 Q105.26,9.43 106.752,11.023 Q108.244,12.616 109.066,14.854 Q109.887,17.092 109.887,19.825 z M108.11,19.825 Q108.11,17.344 107.423,15.365 Q106.735,13.387 105.486,12.012 Q104.237,10.638 102.477,9.908 Q100.717,9.179 98.571,9.179 Q96.459,9.179 94.707,9.908 Q92.955,10.638 91.689,12.012 Q90.423,13.387 89.727,15.365 Q89.032,17.344 89.032,19.825 Q89.032,22.323 89.727,24.293 Q90.423,26.262 91.689,27.637 Q92.955,29.012 94.707,29.733 Q96.459,30.454 98.571,30.454 Q100.717,30.454 102.477,29.733 Q104.237,29.012 105.486,27.637 Q106.735,26.262 107.423,24.293 Q108.11,22.323 108.11,19.825 z" fill="#3FA8B0"/>
      <path d="M124.238,30.47 Q125.948,30.47 127.298,29.875 Q128.647,29.28 129.586,28.224 Q130.525,27.168 131.02,25.734 Q131.514,24.301 131.514,22.641 L131.514,7.972 L133.224,7.972 L133.224,22.641 Q133.224,24.603 132.604,26.304 Q131.983,28.006 130.818,29.272 Q129.653,30.538 127.985,31.258 Q126.317,31.979 124.238,31.979 Q122.159,31.979 120.491,31.258 Q118.823,30.538 117.658,29.272 Q116.493,28.006 115.872,26.304 Q115.252,24.603 115.252,22.641 L115.252,7.972 L116.979,7.972 L116.979,22.624 Q116.979,24.284 117.473,25.718 Q117.968,27.151 118.898,28.207 Q119.829,29.263 121.178,29.867 Q122.528,30.47 124.238,30.47 z" fill="#3FA8B0"/>
      <path d="M156.947,31.694 L155.622,31.694 Q155.387,31.694 155.236,31.569 Q155.086,31.443 155.002,31.242 L152.202,24.351 L140.55,24.351 L137.767,31.242 Q137.7,31.426 137.533,31.56 Q137.365,31.694 137.13,31.694 L135.823,31.694 L145.53,7.972 L147.24,7.972 z M141.07,23.077 L151.699,23.077 L146.854,11.09 Q146.737,10.805 146.619,10.445 Q146.502,10.084 146.385,9.682 Q146.267,10.084 146.15,10.445 Q146.033,10.805 145.915,11.107 z" fill="#3FA8B0"/>
      <path d="M162.412,30.236 L173.661,30.236 L173.661,31.694 L160.702,31.694 L160.702,7.972 L162.412,7.972 z" fill="#3FA8B0"/>
      <path d="M180.199,31.694 L178.473,31.694 L178.473,7.972 L180.199,7.972 z" fill="#3FA8B0"/>
      <path d="M202.095,7.972 L202.095,9.397 L189.605,9.397 L189.605,19.372 L200.418,19.372 L200.418,20.797 L189.605,20.797 L189.605,31.694 L187.878,31.694 L187.878,7.972 z" fill="#3FA8B0"/>
      <path d="M209.404,31.694 L207.677,31.694 L207.677,7.972 L209.404,7.972 z" fill="#3FA8B0"/>
      <path d="M234.317,27.704 Q234.484,27.704 234.602,27.822 L235.272,28.543 Q234.535,29.33 233.663,29.959 Q232.791,30.588 231.76,31.032 Q230.729,31.476 229.497,31.719 Q228.265,31.963 226.789,31.963 Q224.325,31.963 222.271,31.099 Q220.217,30.236 218.751,28.651 Q217.284,27.067 216.462,24.821 Q215.641,22.574 215.641,19.825 Q215.641,17.126 216.487,14.896 Q217.334,12.666 218.868,11.065 Q220.402,9.464 222.539,8.584 Q224.677,7.704 227.259,7.704 Q228.55,7.704 229.623,7.896 Q230.696,8.089 231.626,8.45 Q232.557,8.81 233.378,9.347 Q234.199,9.883 234.987,10.587 L234.468,11.342 Q234.334,11.543 234.049,11.543 Q233.898,11.543 233.663,11.367 Q233.428,11.191 233.068,10.931 Q232.707,10.671 232.196,10.361 Q231.685,10.051 230.981,9.791 Q230.276,9.531 229.354,9.355 Q228.432,9.179 227.259,9.179 Q225.096,9.179 223.285,9.925 Q221.475,10.671 220.167,12.054 Q218.86,13.437 218.13,15.407 Q217.401,17.377 217.401,19.825 Q217.401,22.339 218.122,24.318 Q218.843,26.296 220.117,27.662 Q221.391,29.029 223.126,29.758 Q224.861,30.487 226.89,30.487 Q228.164,30.487 229.162,30.32 Q230.159,30.152 230.997,29.817 Q231.836,29.481 232.557,28.995 Q233.277,28.509 233.982,27.855 Q234.065,27.788 234.141,27.746 Q234.216,27.704 234.317,27.704 z" fill="#3FA8B0"/>
      <path d="M258.525,31.694 L257.201,31.694 Q256.966,31.694 256.815,31.569 Q256.665,31.443 256.581,31.242 L253.781,24.351 L242.129,24.351 L239.346,31.242 Q239.279,31.426 239.112,31.56 Q238.944,31.694 238.709,31.694 L237.402,31.694 L247.108,7.972 L248.819,7.972 z M242.649,23.077 L253.278,23.077 L248.433,11.09 Q248.316,10.805 248.198,10.445 Q248.081,10.084 247.964,9.682 Q247.846,10.084 247.729,10.445 Q247.611,10.805 247.494,11.107 z" fill="#3FA8B0"/>
      <path d="M275.844,7.972 L275.844,9.43 L267.511,9.43 L267.511,31.694 L265.801,31.694 L265.801,9.43 L257.419,9.43 L257.419,7.972 z" fill="#3FA8B0"/>
      <path d="M282.298,31.694 L280.571,31.694 L280.571,7.972 L282.298,7.972 z" fill="#3FA8B0"/>
      <path d="M311.134,19.825 Q311.134,22.574 310.312,24.812 Q309.491,27.05 307.999,28.635 Q306.507,30.219 304.428,31.082 Q302.349,31.946 299.818,31.946 Q297.32,31.946 295.241,31.082 Q293.162,30.219 291.67,28.635 Q290.178,27.05 289.348,24.812 Q288.518,22.574 288.518,19.825 Q288.518,17.092 289.348,14.854 Q290.178,12.616 291.67,11.032 Q293.162,9.447 295.241,8.575 Q297.32,7.704 299.818,7.704 Q302.349,7.704 304.428,8.567 Q306.507,9.43 307.999,11.023 Q309.491,12.616 310.312,14.854 Q311.134,17.092 311.134,19.825 z M309.357,19.825 Q309.357,17.344 308.669,15.365 Q307.982,13.387 306.733,12.012 Q305.484,10.638 303.724,9.908 Q301.963,9.179 299.818,9.179 Q297.705,9.179 295.953,9.908 Q294.201,10.638 292.936,12.012 Q291.67,13.387 290.974,15.365 Q290.278,17.344 290.278,19.825 Q290.278,22.323 290.974,24.293 Q291.67,26.262 292.936,27.637 Q294.201,29.012 295.953,29.733 Q297.705,30.454 299.818,30.454 Q301.963,30.454 303.724,29.733 Q305.484,29.012 306.733,27.637 Q307.982,26.262 308.669,24.293 Q309.357,22.323 309.357,19.825 z" fill="#3FA8B0"/>
      <path d="M317.555,7.972 Q317.79,7.972 317.924,8.031 Q318.058,8.089 318.209,8.29 L333.565,28.844 Q333.515,28.341 333.515,27.872 L333.515,7.972 L335.024,7.972 L335.024,31.694 L334.202,31.694 Q333.817,31.694 333.582,31.359 L318.158,10.772 Q318.209,11.275 318.209,11.727 L318.209,31.694 L316.717,31.694 L316.717,7.972 z" fill="#3FA8B0"/>
    </g>
    <g>
      <path d="M50.988,7.995 C65.46,8.538 76.631,20.025 76.814,34.497 C76.832,40.584 74.78,46.024 71.164,50.859 L65.088,44.782 C67.265,41.773 68.238,38.174 68.331,34.497 C68.331,24.541 60.26,16.47 50.304,16.47 C40.348,16.47 32.277,24.541 32.277,34.497 C32.277,44.453 40.348,52.524 50.304,52.524 C54.054,52.533 57.502,51.367 60.589,49.281 L66.665,55.357 C61.985,59.042 56.235,60.932 50.304,61.007 C35.663,61.007 23.794,49.138 23.794,34.497 C23.794,19.856 35.663,7.987 50.304,7.987 L50.988,7.995 z" fill="#3FA8B0"/>
      <path d="M50.304,22.833 C55.645,22.891 59.949,26.266 61.519,31.316 L57.01,31.316 C55.906,28.705 53.058,27.106 50.304,27.074 C46.204,27.074 42.881,30.398 42.881,34.497 C42.881,38.597 46.204,41.92 50.304,41.92 C53.086,41.85 55.868,40.311 57.01,37.678 L61.519,37.678 C60.014,42.794 55.593,46.028 50.304,46.162 C43.862,46.162 38.639,40.939 38.639,34.497 C38.639,28.055 43.862,22.833 50.304,22.833 z" fill="#3FA8B0"/>
    </g>
  </g>
  <g id="Layer_1_Copy_Copy" display="none">
    <g>
      <path d="M50.988,7.995 C65.46,8.538 76.631,20.025 76.814,34.497 C76.832,40.584 74.78,46.024 71.164,50.859 L65.088,44.782 C67.265,41.773 68.238,38.174 68.331,34.497 C68.331,24.541 60.26,16.47 50.304,16.47 C40.348,16.47 32.277,24.541 32.277,34.497 C32.277,44.453 40.348,52.524 50.304,52.524 C54.054,52.533 57.502,51.367 60.589,49.281 L66.665,55.357 C61.985,59.042 56.235,60.932 50.304,61.007 C35.663,61.007 23.794,49.138 23.794,34.497 C23.794,19.856 35.663,7.987 50.304,7.987 L50.988,7.995 z" fill="#3FA8B0"/>
      <path d="M50.304,22.833 C55.645,22.891 59.949,26.266 61.519,31.316 L57.01,31.316 C55.906,28.705 53.058,27.106 50.304,27.074 C46.204,27.074 42.881,30.398 42.881,34.497 C42.881,38.597 46.204,41.92 50.304,41.92 C53.086,41.85 55.868,40.311 57.01,37.678 L61.519,37.678 C60.014,42.794 55.593,46.028 50.304,46.162 C43.862,46.162 38.639,40.939 38.639,34.497 C38.639,28.055 43.862,22.833 50.304,22.833 z" fill="#3FA8B0"/>
    </g>
    <g>
      <text transform="matrix(1, 0, 0, 1, 223.232, 43.5)">
        <tspan x="-137.232" y="-13.66" font-family="Lato-Regular" font-size="31" fill="#E9F6FF">QUALIFICATION</tspan>
        <tspan x="-137.232" y="16.74" font-family="Lato-Regular" font-size="31" fill="#E9F6FF">CHECK</tspan>
      </text>
      <path d="M109.327,18.742 Q109.327,20.307 109.01,21.718 Q108.692,23.128 108.088,24.345 Q107.483,25.562 106.615,26.554 Q105.747,27.546 104.662,28.274 L110.366,34.428 L107.886,34.428 Q107.328,34.428 106.894,34.273 Q106.46,34.118 106.104,33.73 L102.198,29.483 Q101.314,29.762 100.361,29.917 Q99.408,30.072 98.369,30.072 Q95.92,30.072 93.905,29.243 Q91.89,28.414 90.449,26.91 Q89.007,25.407 88.216,23.322 Q87.426,21.237 87.426,18.742 Q87.426,16.246 88.216,14.162 Q89.007,12.077 90.449,10.566 Q91.89,9.054 93.905,8.217 Q95.92,7.38 98.369,7.38 Q100.818,7.38 102.841,8.217 Q104.864,9.054 106.305,10.566 Q107.746,12.077 108.537,14.162 Q109.327,16.246 109.327,18.742 z M106.243,18.742 Q106.243,16.696 105.685,15.068 Q105.127,13.441 104.104,12.317 Q103.081,11.193 101.624,10.589 Q100.167,9.984 98.369,9.984 Q96.587,9.984 95.13,10.589 Q93.673,11.193 92.642,12.317 Q91.611,13.441 91.053,15.068 Q90.495,16.696 90.495,18.742 Q90.495,20.788 91.053,22.408 Q91.611,24.027 92.642,25.151 Q93.673,26.275 95.13,26.872 Q96.587,27.468 98.369,27.468 Q100.167,27.468 101.624,26.872 Q103.081,26.275 104.104,25.151 Q105.127,24.027 105.685,22.408 Q106.243,20.788 106.243,18.742 z M122.068,27.453 Q123.448,27.453 124.533,26.988 Q125.618,26.523 126.37,25.686 Q127.121,24.849 127.517,23.686 Q127.912,22.524 127.912,21.129 L127.912,7.628 L130.904,7.628 L130.904,21.129 Q130.904,23.051 130.291,24.694 Q129.679,26.337 128.54,27.538 Q127.4,28.739 125.757,29.421 Q124.115,30.103 122.068,30.103 Q120.022,30.103 118.38,29.421 Q116.736,28.739 115.59,27.538 Q114.442,26.337 113.83,24.694 Q113.218,23.051 113.218,21.129 L113.218,7.628 L116.21,7.628 L116.21,21.113 Q116.21,22.508 116.605,23.671 Q117,24.833 117.752,25.67 Q118.504,26.507 119.596,26.98 Q120.689,27.453 122.068,27.453 z M153.471,29.84 L151.146,29.84 Q150.743,29.84 150.495,29.638 Q150.247,29.437 150.124,29.127 L148.046,23.764 L138.08,23.764 L136.003,29.127 Q135.895,29.406 135.631,29.623 Q135.367,29.84 134.98,29.84 L132.655,29.84 L141.536,7.628 L144.59,7.628 z M138.917,21.594 L147.21,21.594 L143.722,12.557 Q143.381,11.72 143.055,10.465 Q142.885,11.1 142.722,11.635 Q142.559,12.17 142.404,12.573 z M159.284,27.313 L168.894,27.313 L168.894,29.84 L156.277,29.84 L156.277,7.628 L159.284,7.628 z M175.776,29.84 L172.769,29.84 L172.769,7.628 L175.776,7.628 z M195.415,7.628 L195.415,10.077 L184.751,10.077 L184.751,17.843 L193.865,17.843 L193.865,20.292 L184.751,20.292 L184.751,29.84 L181.728,29.84 L181.728,7.628 z M202.839,29.84 L199.832,29.84 L199.832,7.628 L202.839,7.628 z M224.446,25.252 Q224.694,25.252 224.895,25.453 L226.074,26.74 Q224.71,28.321 222.764,29.204 Q220.819,30.088 218.076,30.088 Q215.673,30.088 213.72,29.259 Q211.767,28.429 210.387,26.934 Q209.008,25.438 208.249,23.345 Q207.489,21.253 207.489,18.742 Q207.489,16.231 208.303,14.138 Q209.117,12.046 210.589,10.542 Q212.061,9.039 214.115,8.21 Q216.169,7.38 218.649,7.38 Q221.098,7.38 222.873,8.14 Q224.648,8.899 226.027,10.201 L225.051,11.581 Q224.942,11.736 224.803,11.837 Q224.663,11.937 224.4,11.937 Q224.198,11.937 223.973,11.79 Q223.749,11.643 223.438,11.426 Q223.128,11.209 222.71,10.961 Q222.292,10.713 221.718,10.496 Q221.145,10.279 220.385,10.132 Q219.626,9.984 218.633,9.984 Q216.851,9.984 215.371,10.597 Q213.891,11.209 212.821,12.34 Q211.751,13.472 211.155,15.099 Q210.558,16.727 210.558,18.742 Q210.558,20.819 211.155,22.446 Q211.751,24.074 212.782,25.198 Q213.813,26.321 215.223,26.91 Q216.634,27.499 218.262,27.499 Q219.253,27.499 220.044,27.383 Q220.835,27.267 221.509,27.019 Q222.183,26.771 222.764,26.391 Q223.346,26.011 223.934,25.484 Q224.198,25.252 224.446,25.252 z M248.301,29.84 L245.975,29.84 Q245.572,29.84 245.324,29.638 Q245.076,29.437 244.952,29.127 L242.876,23.764 L232.909,23.764 L230.832,29.127 Q230.723,29.406 230.46,29.623 Q230.197,29.84 229.809,29.84 L227.484,29.84 L236.365,7.628 L239.419,7.628 z M233.746,21.594 L242.038,21.594 L238.551,12.557 Q238.21,11.72 237.885,10.465 Q237.714,11.1 237.551,11.635 Q237.389,12.17 237.234,12.573 z M264.188,7.628 L264.188,10.155 L257.012,10.155 L257.012,29.84 L254.005,29.84 L254.005,10.155 L246.797,10.155 L246.797,7.628 z M270.915,29.84 L267.908,29.84 L267.908,7.628 L270.915,7.628 z M297.497,18.742 Q297.497,21.237 296.707,23.322 Q295.917,25.407 294.475,26.91 Q293.034,28.414 291.011,29.243 Q288.988,30.072 286.539,30.072 Q284.09,30.072 282.075,29.243 Q280.06,28.414 278.618,26.91 Q277.177,25.407 276.387,23.322 Q275.596,21.237 275.596,18.742 Q275.596,16.246 276.387,14.162 Q277.177,12.077 278.618,10.566 Q280.06,9.054 282.075,8.217 Q284.09,7.38 286.539,7.38 Q288.988,7.38 291.011,8.217 Q293.034,9.054 294.475,10.566 Q295.917,12.077 296.707,14.162 Q297.497,16.246 297.497,18.742 z M294.413,18.742 Q294.413,16.696 293.855,15.068 Q293.297,13.441 292.274,12.317 Q291.251,11.193 289.794,10.589 Q288.337,9.984 286.539,9.984 Q284.757,9.984 283.299,10.589 Q281.842,11.193 280.812,12.317 Q279.781,13.441 279.223,15.068 Q278.665,16.696 278.665,18.742 Q278.665,20.788 279.223,22.408 Q279.781,24.027 280.812,25.151 Q281.842,26.275 283.299,26.872 Q284.757,27.468 286.539,27.468 Q288.337,27.468 289.794,26.872 Q291.251,26.275 292.274,25.151 Q293.297,24.027 293.855,22.408 Q294.413,20.788 294.413,18.742 z M303.155,7.628 Q303.558,7.628 303.752,7.729 Q303.945,7.83 304.194,8.14 L317.059,24.88 Q317.012,24.477 316.996,24.097 Q316.981,23.717 316.981,23.361 L316.981,7.628 L319.616,7.628 L319.616,29.84 L318.097,29.84 Q317.741,29.84 317.5,29.716 Q317.26,29.592 317.027,29.297 L304.178,12.573 Q304.209,12.96 304.224,13.332 Q304.24,13.704 304.24,14.014 L304.24,29.84 L301.605,29.84 L301.605,7.628 z M104.352,55.652 Q104.6,55.652 104.801,55.853 L105.979,57.14 Q104.616,58.721 102.67,59.604 Q100.725,60.488 97.981,60.488 Q95.579,60.488 93.626,59.659 Q91.673,58.829 90.294,57.334 Q88.914,55.838 88.155,53.745 Q87.395,51.653 87.395,49.142 Q87.395,46.631 88.209,44.538 Q89.022,42.446 90.495,40.942 Q91.967,39.439 94.021,38.61 Q96.075,37.78 98.555,37.78 Q101.004,37.78 102.779,38.54 Q104.553,39.299 105.933,40.601 L104.956,41.981 Q104.848,42.136 104.708,42.237 Q104.569,42.337 104.305,42.337 Q104.104,42.337 103.879,42.19 Q103.655,42.043 103.344,41.826 Q103.035,41.609 102.616,41.361 Q102.198,41.113 101.624,40.896 Q101.05,40.679 100.291,40.532 Q99.532,40.384 98.539,40.384 Q96.757,40.384 95.277,40.997 Q93.797,41.609 92.727,42.74 Q91.658,43.872 91.061,45.499 Q90.464,47.127 90.464,49.142 Q90.464,51.219 91.061,52.846 Q91.658,54.474 92.688,55.598 Q93.719,56.721 95.13,57.31 Q96.54,57.899 98.167,57.899 Q99.16,57.899 99.95,57.783 Q100.741,57.667 101.415,57.419 Q102.089,57.171 102.67,56.791 Q103.252,56.411 103.84,55.884 Q104.104,55.652 104.352,55.652 z M127.943,60.24 L124.921,60.24 L124.921,50.134 L112.954,50.134 L112.954,60.24 L109.932,60.24 L109.932,38.028 L112.954,38.028 L112.954,47.933 L124.921,47.933 L124.921,38.028 L127.943,38.028 z M147.055,38.028 L147.055,40.477 L136.391,40.477 L136.391,47.855 L145.024,47.855 L145.024,50.211 L136.391,50.211 L136.391,57.791 L147.055,57.791 L147.055,60.24 L133.368,60.24 L133.368,38.028 z M167.034,55.652 Q167.282,55.652 167.484,55.853 L168.661,57.14 Q167.298,58.721 165.352,59.604 Q163.407,60.488 160.663,60.488 Q158.261,60.488 156.308,59.659 Q154.355,58.829 152.975,57.334 Q151.596,55.838 150.837,53.745 Q150.077,51.653 150.077,49.142 Q150.077,46.631 150.891,44.538 Q151.704,42.446 153.177,40.942 Q154.65,39.439 156.703,38.61 Q158.757,37.78 161.237,37.78 Q163.686,37.78 165.461,38.54 Q167.236,39.299 168.615,40.601 L167.639,41.981 Q167.53,42.136 167.391,42.237 Q167.251,42.337 166.988,42.337 Q166.786,42.337 166.561,42.19 Q166.337,42.043 166.027,41.826 Q165.717,41.609 165.298,41.361 Q164.88,41.113 164.306,40.896 Q163.732,40.679 162.973,40.532 Q162.214,40.384 161.221,40.384 Q159.439,40.384 157.959,40.997 Q156.479,41.609 155.409,42.74 Q154.339,43.872 153.743,45.499 Q153.146,47.127 153.146,49.142 Q153.146,51.219 153.743,52.846 Q154.339,54.474 155.37,55.598 Q156.401,56.721 157.811,57.31 Q159.222,57.899 160.85,57.899 Q161.842,57.899 162.632,57.783 Q163.423,57.667 164.097,57.419 Q164.771,57.171 165.352,56.791 Q165.934,56.411 166.523,55.884 Q166.786,55.652 167.034,55.652 z M175.915,47.762 L177.047,47.762 Q177.636,47.762 177.985,47.615 Q178.333,47.468 178.643,47.111 L186.037,38.741 Q186.378,38.354 186.696,38.191 Q187.014,38.028 187.51,38.028 L190.067,38.028 L181.604,47.592 Q181.279,47.948 180.992,48.196 Q180.705,48.444 180.38,48.599 Q180.813,48.739 181.139,49.018 Q181.464,49.297 181.821,49.715 L190.656,60.24 L188.052,60.24 Q187.757,60.24 187.556,60.193 Q187.354,60.147 187.207,60.069 Q187.06,59.992 186.936,59.868 Q186.812,59.744 186.688,59.604 L179.016,50.785 Q178.845,50.599 178.698,50.467 Q178.551,50.335 178.357,50.242 Q178.163,50.149 177.907,50.111 Q177.652,50.072 177.279,50.072 L175.915,50.072 L175.915,60.24 L172.924,60.24 L172.924,38.028 L175.915,38.028 z" fill="#3FA8B0"/>
    </g>
  </g>
</svg>
