<?xml version="1.0" encoding="UTF-8"?>
<!DOCTYPE svg PUBLIC "-//W3C//DTD SVG 1.1//EN" "http://www.w3.org/Graphics/SVG/1.1/DTD/svg11.dtd">
<svg version="1.1" xmlns="http://www.w3.org/2000/svg" xmlns:xlink="http://www.w3.org/1999/xlink" x="0" y="0" width="260" height="260" viewBox="0, 0, 260, 260">
  <g id="Layer_1">
    <path d="M175.433,259.995 L161.206,259.995 C151.48,259.995 143.568,249.624 143.568,236.868 L143.568,236.25 C132.624,238.522 121.405,238.846 110.291,237.173 C110.167,249.786 102.302,260 92.653,260 L78.426,260 C68.7,260 60.788,249.629 60.788,236.874 L60.788,214.183 C51.05,205.744 42.74,195.302 36.463,183.627 L22.344,183.627 C10.024,183.627 0,170.481 0,154.318 L0,103.425 C0,87.267 10.024,74.116 22.344,74.116 L36.467,74.116 C43.699,60.646 53.568,48.936 65.32,39.873 L65.32,0 L71.96,0 C84.459,0 95.859,8.485 102.317,22.112 C109.564,20.383 116.95,19.505 124.344,19.505 C180.31,19.505 225.838,68.563 225.838,128.859 C225.838,159.557 213.942,188.658 193.071,209.345 L193.071,236.858 C193.071,249.618 185.163,259.995 175.433,259.995 z M156.855,214.767 L156.855,236.868 C156.855,240.013 158.808,242.574 161.206,242.574 L175.433,242.574 C177.835,242.574 179.784,240.013 179.784,236.868 L179.784,200.399 L182.611,197.797 C201.637,180.295 212.55,155.17 212.55,128.874 C212.55,78.179 172.981,36.941 124.34,36.941 C116.208,36.941 108.091,38.128 100.209,40.461 L94.799,42.064 L92.63,35.374 C89.992,27.245 84.807,21.26 78.596,18.745 L78.596,50.183 L75.096,52.648 C62.605,61.447 52.408,73.503 45.601,87.51 L43.645,91.542 L22.337,91.542 C17.34,91.542 13.276,96.872 13.276,103.43 L13.276,154.313 C13.276,160.866 17.34,166.201 22.337,166.201 L43.645,166.201 L45.601,170.233 C51.603,182.587 60.343,193.552 70.877,201.946 L74.068,204.491 L74.068,236.868 C74.068,240.013 76.02,242.574 78.418,242.574 L92.645,242.574 C95.047,242.574 96.996,240.013 96.996,236.868 L96.996,216.663 L104.815,218.509 C119.387,221.948 134.453,221.481 148.719,217.201 L156.855,214.767 z" fill="#F04848"/>
    <path d="M83.032,92.351 C83.032,97.744 78.653,102.116 73.252,102.116 C67.85,102.116 63.472,97.744 63.472,92.351 C63.472,86.958 67.85,82.586 73.252,82.586 C78.653,82.586 83.032,86.958 83.032,92.351 z" fill="#F04848"/>
    <path d="M180.399,89.387 C159.195,60.362 126.266,62.289 125.922,62.33 L125.396,49.281 C126.931,49.189 163.259,47.049 187.592,80.349 L180.399,89.387 z" fill="#F04848"/>
    <path d="M243.816,134.154 C243.043,134.154 242.242,134.078 241.426,133.925 C235.072,132.734 230.25,125.096 230.44,116.535 C230.49,114.177 231.054,109.257 234.376,104.409 C227.149,100.823 220.25,103.197 220.157,103.232 L217.535,90.624 C218.161,90.401 231.816,85.7 243.978,96.259 C247.846,94.311 252.807,92.81 259.169,92.115 L260,105.134 C257.073,105.453 254.485,105.976 252.235,106.65 C255.8,113.223 256.748,120.009 254.729,125.745 C252.861,131.085 248.789,134.154 243.816,134.154 z M242.722,111.95 C241.198,113.583 240.44,115.313 240.401,116.92 C240.355,119.076 241.623,120.765 242.838,120.993 C244.435,121.297 245.498,120.841 245.695,120.273 C246.043,119.268 245.641,116.139 242.722,111.95 z" fill="#F04848"/>
  </g>
</svg>
