<?xml version="1.0" encoding="UTF-8"?>
<!DOCTYPE svg PUBLIC "-//W3C//DTD SVG 1.1//EN" "http://www.w3.org/Graphics/SVG/1.1/DTD/svg11.dtd">
<svg version="1.1" xmlns="http://www.w3.org/2000/svg" xmlns:xlink="http://www.w3.org/1999/xlink" x="0" y="0" width="101.016" height="73.2" viewBox="0, 0, 101.016, 73.2">
  <g id="Layer_1">
    <path d="M34.16,73.2 C38.552,73.2 41.236,71.736 41.236,66.124 L41.236,39.04 C41.236,33.428 38.552,31.964 34.16,31.964 L26.84,31.964 L40.016,6.832 C41.968,3.66 40.992,0 37.82,0 L22.204,0 C19.032,0 17.324,1.464 15.616,4.392 L1.708,32.696 C0.244,36.6 0,38.796 0,44.164 L0,66.124 C0,71.736 2.684,73.2 7.076,73.2 z M93.94,73.2 C98.332,73.2 101.016,71.736 101.016,66.124 L101.016,39.04 C101.016,33.428 98.332,31.964 93.94,31.964 L86.62,31.964 L100.04,6.832 C101.748,3.66 100.772,0 97.6,0 L81.984,0 C78.812,0 77.104,1.464 75.396,4.392 L61.488,32.696 C60.024,36.6 59.78,38.796 59.78,44.164 L59.78,66.124 C59.78,71.736 62.464,73.2 66.856,73.2 z" fill="#F04848"/>
  </g>
</svg>
